HIERARCHY
ROOT Pelvis
{
	OFFSET 0.000000 0.000000 0.000000
	CHANNELS 6 Xposition Yposition Zposition Xrotation Yrotation Zrotation
	JOINT LeftUpLeg_virtual
	{
		OFFSET 0.000000 0.000000 0.000000
		CHANNELS 3 Xrotation Yrotation Zrotation
		JOINT LeftUpLeg
		{
			OFFSET 18.735201 -5.666702 -4.541200
			CHANNELS 3 Xrotation Yrotation Zrotation
			JOINT LeftLeg
			{
				OFFSET -0.021200 -31.938179 0.493100
				CHANNELS 3 Xrotation Yrotation Zrotation
				JOINT LeftFoot
				{
					OFFSET 0.021200 -31.938179 -4.336299
					CHANNELS 3 Xrotation Yrotation Zrotation
					JOINT LeftToeBase
					{
						OFFSET 0.943001 -26.722000 15.023500
						CHANNELS 3 Xrotation Yrotation Zrotation
						End Site
						{
							OFFSET 0 0 0
						}
					}
				}
			}
		}
	}
	JOINT RightUpLeg_virtual
	{
		OFFSET 0.000000 0.000000 0.000000
		CHANNELS 3 Xrotation Yrotation Zrotation
		JOINT RightUpLeg
		{
			OFFSET -18.735201 -5.666702 -4.541200
			CHANNELS 3 Xrotation Yrotation Zrotation
			JOINT RightLeg
			{
				OFFSET 0.018946 -31.938133 0.493100
				CHANNELS 3 Xrotation Yrotation Zrotation
				JOINT RightFoot
				{
					OFFSET -0.018946 -31.938126 -4.336299
					CHANNELS 3 Xrotation Yrotation Zrotation
					JOINT RightToeBase
					{
						OFFSET -0.943001 -26.722004 15.023500
						CHANNELS 3 Xrotation Yrotation Zrotation
						End Site
						{
							OFFSET 0 0 0
						}
					}
				}
			}
		}
	}
	JOINT Hips_virtual
	{
		OFFSET 0.000000 0.000000 0.000000
		CHANNELS 3 Xrotation Yrotation Zrotation
		JOINT Hips
		{
			OFFSET -0.000000 -0.000000 -0.000000
			CHANNELS 3 Xrotation Yrotation Zrotation
			JOINT Spine
			{
				OFFSET 0.000000 10.199997 -0.299500
				CHANNELS 3 Xrotation Yrotation Zrotation
				JOINT Spine1
				{
					OFFSET 0.000000 11.900002 -1.516600
					CHANNELS 3 Xrotation Yrotation Zrotation
					JOINT Spine2
					{
						OFFSET 0.000000 13.600006 -2.842500
						CHANNELS 3 Xrotation Yrotation Zrotation
						JOINT Neck_virtual
						{
							OFFSET 0.000000 0.000000 0.000000
							CHANNELS 3 Xrotation Yrotation Zrotation
							JOINT Neck
							{
								OFFSET 0.000000 9.624100 -2.890100
								CHANNELS 3 Xrotation Yrotation Zrotation
								JOINT Head
								{
									OFFSET 0.000000 14.068802 -1.351900
									CHANNELS 3 Xrotation Yrotation Zrotation
									End Site
									{
										OFFSET 0 0 0
									}
								}
							}
						}
						JOINT LeftShoulder_virtual
						{
							OFFSET 0.000000 0.000000 0.000000
							CHANNELS 3 Xrotation Yrotation Zrotation
							JOINT LeftShoulder
							{
								OFFSET 15.263000 10.923401 -0.547700
								CHANNELS 3 Xrotation Yrotation Zrotation
								JOINT LeftArm
								{
									OFFSET 25.438599 -2.830597 -13.032500
									CHANNELS 3 Xrotation Yrotation Zrotation
									JOINT LeftForeArm
									{
										OFFSET 29.960503 0.000000 0.000000
										CHANNELS 3 Xrotation Yrotation Zrotation
										JOINT LeftHand
										{
											OFFSET 27.849251 0.000000 0.000000
											CHANNELS 3 Xrotation Yrotation Zrotation
											End Site
											{
												OFFSET 0 0 0
											}
										}
									}
								}
							}
						}
						JOINT RightShoulder_virtual
						{
							OFFSET 0.000000 0.000000 0.000000
							CHANNELS 3 Xrotation Yrotation Zrotation
							JOINT RightShoulder
							{
								OFFSET -15.263000 10.923401 -0.547700
								CHANNELS 3 Xrotation Yrotation Zrotation
								JOINT RightArm
								{
									OFFSET -25.438599 -2.830597 -13.032500
									CHANNELS 3 Xrotation Yrotation Zrotation
									JOINT RightForeArm
									{
										OFFSET -29.960503 0.000000 0.000000
										CHANNELS 3 Xrotation Yrotation Zrotation
										JOINT RightHand
										{
											OFFSET -27.849251 0.000000 0.000000
											CHANNELS 3 Xrotation Yrotation Zrotation
											End Site
											{
												OFFSET 0 0 0
											}
										}
									}
								}
							}
						}
					}
				}
			}
		}
	}
}
MOTION
Frames: 10
Frame Time: 0.03333333
-6.057606 91.124237 12.761109 0.000000 0.000000 0.000000 -28.973458 -44.065795 -15.897460 -4.800639 10.723696 7.164704 35.057934 -2.129425 -7.660064 -3.488016 4.871305 -1.864479 0.000000 0.000000 0.000000 -29.349022 -42.923989 -16.102268 11.514598 -1.667401 -10.921884 29.219781 -7.762703 3.777064 -23.607893 -15.330474 3.493813 0.000000 0.000000 0.000000 -28.847266 -42.932059 -15.649437 -0.831118 -0.104277 -0.015150 10.930975 -1.978687 1.021629 3.280558 -3.798004 0.914497 0.000000 0.000000 0.000000 4.555460 -2.139474 1.095136 -0.969998 -0.694343 -0.695479 0.000000 0.000000 0.000000 5.209222 -2.654790 1.082726 -6.744470 -17.082914 -6.297409 -15.611985 -2.798330 -43.012133 -7.134090 -69.523854 -5.592333 0.000000 0.000000 0.000000 2.782382 -1.602760 0.103750 6.209423 14.531919 10.503365 -9.847336 -4.376418 63.857938 16.151458 47.149506 -13.563463 0.000000 0.000000 0.000000 
-5.509851 91.262947 13.461990 0.000000 0.000000 0.000000 -30.082520 -46.094590 -17.828090 -3.800392 12.598304 7.671954 34.779801 -1.923221 -8.102630 -3.407512 6.063030 0.903607 0.000000 0.000000 0.000000 -30.431891 -44.974712 -17.961046 10.866410 -0.692081 -11.060190 28.838554 -7.629308 3.009377 -21.117048 -14.626869 4.161111 0.000000 0.000000 0.000000 -29.955004 -44.876300 -17.550441 -0.818517 -0.090556 -0.014342 10.842842 -2.118149 1.343955 3.152354 -3.834177 0.931399 0.000000 0.000000 0.000000 4.725394 -2.166286 1.059769 -1.022784 -0.702552 -0.717260 0.000000 0.000000 0.000000 5.396164 -2.661916 1.110901 -6.688097 -16.904665 -6.347599 -15.488431 -2.896544 -43.016893 -6.508325 -69.439992 -4.978204 0.000000 0.000000 0.000000 2.519264 -1.639670 0.107052 6.472160 14.592132 10.414491 -10.139176 -4.129107 64.017246 16.233271 46.745299 -13.608721 0.000000 0.000000 0.000000 
-4.904812 91.329651 14.079023 0.000000 0.000000 0.000000 -31.299209 -48.023805 -19.832084 -2.895517 14.064686 8.176564 34.442100 -1.950449 -8.528394 -4.035434 7.032730 2.695018 0.000000 0.000000 0.000000 -31.695397 -46.974923 -19.942739 9.980717 0.425157 -10.956778 29.098341 -7.924299 2.156703 -18.047013 -14.675896 3.799576 0.000000 0.000000 0.000000 -31.112707 -46.724037 -19.480437 -0.805125 -0.067383 -0.020470 10.767793 -2.228030 1.579289 3.039183 -3.868503 0.968148 0.000000 0.000000 0.000000 4.871053 -2.179198 1.011048 -1.124838 -0.714695 -0.740830 0.000000 0.000000 0.000000 5.607544 -2.660901 1.123088 -6.647374 -16.740824 -6.332787 -15.392328 -2.976252 -42.987913 -5.959150 -69.541947 -4.436678 0.000000 0.000000 0.000000 2.346541 -1.653065 0.119843 6.709298 14.594096 10.235061 -10.362601 -4.115457 64.266992 16.476686 46.579401 -13.853350 0.000000 0.000000 0.000000 
-4.264943 91.415588 14.662919 0.000000 0.000000 0.000000 -32.606350 -49.939587 -21.817970 -1.721073 15.044219 8.444688 33.549507 -2.090536 -8.909656 -5.130567 7.758408 3.479746 0.000000 0.000000 0.000000 -33.069351 -48.929959 -21.946163 9.032499 1.523931 -10.540253 29.985183 -8.825323 1.269418 -16.106653 -15.677376 2.092501 0.000000 0.000000 0.000000 -32.255353 -48.533955 -21.321390 -0.793627 -0.052986 -0.031693 10.680973 -2.299107 1.651621 2.943497 -3.908187 1.041761 0.000000 0.000000 0.000000 5.003690 -2.174541 0.985319 -1.255365 -0.734639 -0.757119 0.000000 0.000000 0.000000 5.820843 -2.651323 1.132674 -6.633850 -16.596866 -6.255934 -15.350022 -3.043603 -42.985430 -5.479886 -69.847823 -3.945450 0.000000 0.000000 0.000000 2.300680 -1.630737 0.160557 6.881471 14.531002 9.995125 -10.510141 -4.325532 64.525337 16.866334 46.649038 -14.275712 0.000000 0.000000 0.000000 
-3.536129 91.535545 15.239717 0.000000 0.000000 0.000000 -34.036448 -51.876328 -23.818521 -0.108864 15.604301 8.262044 32.027136 -2.076261 -9.227635 -6.431184 8.405960 3.570767 0.000000 0.000000 0.000000 -34.529413 -50.862008 -23.925775 8.028718 2.328323 -9.820077 31.469082 -10.117801 0.656494 -15.777233 -17.193022 -0.098747 0.000000 0.000000 0.000000 -33.443670 -50.380561 -23.090718 -0.787952 -0.049496 -0.040318 10.554966 -2.338856 1.527400 2.877914 -3.957875 1.162393 0.000000 0.000000 0.000000 5.143189 -2.152972 1.016735 -1.388099 -0.763880 -0.753893 0.000000 0.000000 0.000000 6.032972 -2.635533 1.147974 -6.657001 -16.470776 -6.137600 -15.418553 -3.066069 -43.053705 -5.107320 -70.266459 -3.531919 0.000000 0.000000 0.000000 2.350748 -1.579735 0.239448 6.963902 14.424596 9.750209 -10.563358 -4.691314 64.741929 17.373496 46.913619 -14.821410 0.000000 0.000000 0.000000 
-2.761595 91.712509 15.797853 0.000000 0.000000 0.000000 -35.613549 -53.743357 -25.882741 1.816687 15.851162 7.621022 30.048113 -1.789289 -9.478598 -7.625599 9.107729 3.268911 0.000000 0.000000 0.000000 -36.109595 -52.726130 -25.943010 6.879983 2.484599 -8.971031 33.507354 -11.466655 0.681738 -16.398157 -18.673771 -1.646634 0.000000 0.000000 0.000000 -34.789750 -52.243280 -24.897250 -0.784953 -0.062891 -0.039699 10.393135 -2.360169 1.263058 2.848785 -4.024054 1.332929 0.000000 0.000000 0.000000 5.303831 -2.121566 1.121432 -1.500852 -0.802179 -0.722592 0.000000 0.000000 0.000000 6.228561 -2.613882 1.169274 -6.725689 -16.347749 -6.009010 -15.620547 -3.026658 -43.210007 -4.861641 -70.634149 -3.203601 0.000000 0.000000 0.000000 2.474978 -1.510355 0.361445 6.961652 14.280251 9.494235 -10.509026 -5.135774 64.887542 17.927493 47.274434 -15.415527 0.000000 0.000000 0.000000 
-1.998864 91.894424 16.410366 0.000000 0.000000 0.000000 -37.358188 -55.446116 -28.087814 3.669520 15.949330 6.676561 28.264921 -1.227035 -9.674399 -8.671589 9.932944 2.875029 0.000000 0.000000 0.000000 -37.773910 -54.361086 -28.062235 5.529747 1.834431 -8.192698 36.273813 -12.528351 1.450153 -16.905034 -19.776741 -2.064021 0.000000 0.000000 0.000000 -36.309091 -54.006056 -26.828845 -0.783293 -0.086376 -0.035519 10.192605 -2.394615 0.956596 2.838453 -4.114810 1.538019 0.000000 0.000000 0.000000 5.471434 -2.089213 1.276798 -1.576068 -0.845962 -0.660950 0.000000 0.000000 0.000000 6.386705 -2.594262 1.182093 -6.836665 -16.235602 -5.894039 -15.939418 -2.907234 -43.446468 -4.791627 -70.827177 -3.004842 0.000000 0.000000 0.000000 2.667335 -1.440887 0.511236 6.893156 14.112060 9.227528 -10.367682 -5.541064 64.984817 18.434059 47.604387 -15.957873 0.000000 0.000000 0.000000 
-1.272781 92.003151 17.036861 0.000000 0.000000 0.000000 -39.314009 -56.941436 -30.504923 5.102399 16.011017 5.724713 27.199207 -0.509124 -9.838960 -9.819772 10.809062 2.461014 0.000000 0.000000 0.000000 -39.580369 -55.814025 -30.340694 4.360909 0.596845 -7.580489 39.462757 -13.232213 2.617657 -16.916804 -20.528221 -1.669510 0.000000 0.000000 0.000000 -38.077840 -55.621010 -29.005290 -0.780440 -0.103986 -0.037616 9.983500 -2.448537 0.715580 2.840962 -4.222175 1.748005 0.000000 0.000000 0.000000 5.607493 -2.070727 1.444782 -1.609497 -0.887431 -0.578044 0.000000 0.000000 0.000000 6.488710 -2.586076 1.174568 -6.980271 -16.139264 -5.836620 -16.294977 -2.716081 -43.687758 -4.974216 -70.848487 -3.023835 0.000000 0.000000 0.000000 2.879668 -1.394907 0.664948 6.779925 13.952019 8.953819 -10.167911 -5.838710 65.083097 18.816900 47.805737 -16.374040 0.000000 0.000000 0.000000 
-0.611764 92.030655 17.621471 0.000000 0.000000 0.000000 -41.502278 -58.291846 -33.159137 6.014483 16.107212 4.995996 26.816209 0.170961 -10.017715 -11.104442 11.596525 1.884435 0.000000 0.000000 0.000000 -41.587133 -57.121517 -32.831493 4.048931 -1.027799 -7.202298 42.141045 -13.939668 3.758351 -17.456635 -21.181829 -1.371848 0.000000 0.000000 0.000000 -40.104788 -57.101611 -31.473150 -0.768763 -0.112046 -0.046114 9.787255 -2.517203 0.629258 2.852726 -4.342130 1.943520 0.000000 0.000000 0.000000 5.681102 -2.070591 1.583932 -1.599804 -0.923921 -0.486846 0.000000 0.000000 0.000000 6.512675 -2.595835 1.141566 -7.137510 -16.082983 -5.871690 -16.534247 -2.535439 -43.845289 -5.414515 -70.808489 -3.289753 0.000000 0.000000 0.000000 3.116619 -1.376867 0.802843 6.643827 13.821662 8.650176 -9.983261 -5.969842 65.197134 19.025835 47.839656 -16.622922 0.000000 0.000000 0.000000 
-0.019953 91.958694 18.179909 0.000000 0.000000 0.000000 -43.984963 -59.630243 -36.116603 6.453669 16.353624 4.557357 27.000363 0.774147 -10.201615 -12.461760 12.340566 1.234714 0.000000 0.000000 0.000000 -43.822507 -58.434707 -35.582724 5.011248 -2.698027 -7.123498 43.782383 -14.823517 4.573961 -18.939280 -21.857876 -1.459686 0.000000 0.000000 0.000000 -42.359863 -58.505966 -34.216420 -0.756882 -0.096069 -0.061098 9.583646 -2.591409 0.704632 2.869022 -4.467932 2.113870 0.000000 0.000000 0.000000 5.706037 -2.087846 1.662013 -1.547864 -0.954980 -0.403881 0.000000 0.000000 0.000000 6.455617 -2.624876 1.085190 -7.284538 -16.079613 -6.024363 -16.581471 -2.395714 -43.839296 -6.105447 -70.777173 -3.817773 0.000000 0.000000 0.000000 3.381153 -1.380004 0.912607 6.512697 13.737914 8.338826 -9.864925 -5.931928 65.339666 19.075719 47.751522 -16.723776 0.000000 0.000000 0.000000 
